<?xml version="1.0" encoding="utf-8"?>
<!-- Generator: Adobe Illustrator 27.1.1, SVG Export Plug-In . SVG Version: 6.00 Build 0)  -->
<svg version="1.1" id="Layer_1" xmlns="http://www.w3.org/2000/svg" xmlns:xlink="http://www.w3.org/1999/xlink" x="0px" y="0px"
	 viewBox="0 0 726.1 245.1" style="enable-background:new 0 0 726.1 245.1;" xml:space="preserve">
<style type="text/css">
	.st0{fill:#0E1D2B;}
	.st1{fill:#FAA228;}
	.st2{fill:#E4273E;}
	.st3{fill:#47C0B5;}
	.st4{fill:#111F2D;}
</style>
<path class="st0" d="M0,153.9c0-25,0-50,0-75c0-2.5-0.1-5,0.6-7.4c0.8-3,2.5-5.3,5.1-7c1.5-1,3.2-1.7,5.1-1.7c1.6,0,3.2-0.1,4.8-0.1
	c32.9,0,65.9,0,98.8,0c1.4,0,2.7,0,4.1,0.1c6.2,0.4,10.9,5.4,11,11.7c0.1,4.5-1.8,7.9-5.4,10.4c-1.5,1.1-3.3,1.6-5.1,1.8
	c-2,0.2-4.1,0.2-6.1,0.2c-26.8,0-53.6,0-80.4,0c-2,0-4.1,0-6.1,0.1c-1.2,0-2,0.9-2,2.2c0,0.9,0,1.8,0,2.7c0,14.8,0,29.5,0,44.3
	c0,1.4,0,2.7,0.3,4.1c0.1,0.5,0.9,1.2,1.4,1.2c2,0.2,4.1,0.2,6.1,0.2c18.2,0,36.4,0,54.5,0c2,0,4.1,0,6.1,0.1
	c4.7,0.1,10.2,5,10.6,10.7c0.3,3.9-0.9,7.2-3.6,9.9c-1.7,1.6-3.6,2.8-6,3c-2.3,0.2-4.5,0.4-6.8,0.4c-18.2,0-36.4,0-54.5,0
	c-2,0-4.1,0.1-6.1,0.1c-0.8,0-1.8,0.9-1.9,1.7c0,0.7-0.1,1.4-0.1,2c0,15.7,0,31.4,0,47c0,0.7,0.1,1.4,0.1,2c0.1,0.9,0.8,1.8,1.7,1.8
	c2,0.1,4.1,0.1,6.1,0.1c26.8,0,53.6,0,80.4,0c2,0,4.1,0.1,6.1,0.1c4.8,0,10.7,4.9,10.8,11.2c0.1,3.9-1,7.1-3.9,9.7
	c-1.7,1.6-3.7,2.7-6.1,2.8c-2.3,0.2-4.5,0.3-6.8,0.3c-26.8,0-53.6,0-80.4,0c-5.7,0-11.4,0-17,0c-1.8,0-3.7,0-5.4-0.3
	c-4.7-0.8-7.7-3.7-9.1-8.2c-0.6-2-0.7-4-0.7-6.1c0-7,0-14.1,0-21.1C0,190.7,0,172.3,0,153.9z"/>
<path class="st0" d="M379.2,162.8c-3.4-11.7-10-21.2-19-29.4c-18.1-16.4-42.9-19.8-63.7-12.5c-25.3,8.9-50.6,37.4-39.9,78.2
	c5.6,18.2,17,31.4,34,39.7c15.2,7.4,31,7.8,47.1,3.1c7.7-2.3,14.6-6.3,20.7-11.4c4-3.4,5.3-7.7,4.2-12.8c-1.4-6.6-9-9.9-14.3-8.2
	c-2.4,0.8-4.4,2.2-6.4,3.7c-10.5,8-22.3,9.9-34.8,6.4c-12.6-3.5-21.4-11.6-26.4-23.7c-0.1-0.2-0.1-0.4-0.2-0.7
	c-0.3-0.7,0.5-2,1.3-2.1c1.6,0,3.2-0.1,4.8-0.1c13.2,0,26.4,0,39.5,0c13.2,0,26.4,0,39.5,0c1.8,0,3.6,0,5.4-0.1
	c5.7-0.3,10.6-5.3,10.6-11.2C381.6,175.2,381,169,379.2,162.8z M354.8,169c-1.1,0.2-2.2,0.3-3.4,0.3c-11.3,0-22.6,0-34,0
	c-10.2,0-20.4,0-30.6,0c-1.8,0-3.6-0.1-5.4-0.1c-0.5,0-1.2-1-1.1-1.4c0.2-0.9,0.4-1.8,0.8-2.6c6.3-13.6,17-21.3,31.8-23.5
	c17-2.4,34.9,7.2,42.1,24.4c0.3,0.6,0.3,1.3,0.3,2C355.4,168.4,355,169,354.8,169z"/>
<path class="st0" d="M662.3,117.4c-33.6-0.8-64.1,27.7-64,64c0.1,34.6,28.8,63.6,63.8,63.7c34,0.1,64-27.9,64-63.4
	C726.1,143.5,694.3,116.7,662.3,117.4z M662.1,221.1c-22.2,0.2-39.7-18.7-39.8-39.8c-0.1-19,15.1-39.8,39.6-40
	c24.4-0.2,40.4,20.7,40.2,40.2C702,202.3,684.2,221.4,662.1,221.1z"/>
<path class="st0" d="M390.2,181.1c0-15.7,0-31.4,0-47c0-1.8,0-3.6,0.1-5.5c0.3-6.2,5-10.1,9.5-11c5.4-1,10.3,1.5,13,6.6
	c0.5,1,0.8,2.1,1.3,3.2c0.3,0.6,0.9,0.8,1.6,0.4c1.4-0.8,2.7-1.7,4.1-2.5c11.4-6.7,23.8-9.1,36.7-7.4c19.1,2.6,33.9,12.3,44.1,28.8
	c5.7,9.1,8.3,19.1,8.6,29.7c0.1,5.5,0,10.9,0,16.4c0,12,0,24.1,0,36.1c0,1.8,0.1,3.7-0.1,5.4c-1,7.9-8.6,12.6-16.1,9.9
	c-4.7-1.7-7.1-5.4-7.7-10.3c-0.2-1.8-0.1-3.6-0.1-5.4c0-15.7,0-31.4,0-47c0-2,0-4.1,0-6.1c-0.3-15.8-13.6-31.4-31.1-33.6
	c-18.6-2.3-36.5,10.5-39.6,30.2c-0.4,2.4-0.3,5-0.3,7.5c0,16.4,0,32.7,0,49.1c0,1.8,0,3.6,0,5.5c-0.1,4.8-4.3,10-9.6,10.9
	c-5.5,0.9-10.6-1.5-13-6.5c-0.6-1.2-0.9-2.6-1-3.9c-0.2-2-0.2-4.1-0.2-6.1C390.2,212.4,390.2,196.8,390.2,181.1z"/>
<path class="st0" d="M127.4,129.7c0-5.9,3.5-10.6,9.1-12c4.9-1.2,10.4,1.1,12.9,5.5c1.1,2,2,4.1,2.9,6.1
	c10.5,22.9,21,45.8,31.5,68.7c0.7,1.4,1.4,2.9,2.1,4.2c0.2,0.3,0.7,0.5,1.1,0.7c0.1,0,0.3-0.2,0.4-0.4c1-2,2-4.1,3-6.1
	c10.5-22.9,21-45.8,31.4-68.7c0.8-1.6,1.5-3.3,2.4-4.9c3.7-6.6,12.8-7.1,17.7-2.7c4,3.6,5.2,8.5,3.3,13.6c-0.6,1.5-1.2,2.9-1.9,4.4
	c-14.5,31.5-28.9,63.1-43.4,94.6c-0.9,1.9-1.7,3.7-2.6,5.5c-2.4,5-6.8,7-12.4,6.4c-3.9-0.4-6.8-2.4-8.5-6c-0.6-1.2-1.2-2.4-1.8-3.7
	c-15-32.6-29.9-65.1-44.9-97.7c-0.4-0.8-0.7-1.7-1.1-2.5C127.5,133.1,127.5,131.1,127.4,129.7z"/>
<path class="st0" d="M557.4,94.3c0,5.2,0,10.4,0,15.7c0,1.6,0,3.2,0,4.8c0,1.7,0.8,2.6,2.4,2.6c4.1,0,8.2,0,12.3,0.1
	c4.2,0.1,7.4,2.1,9.6,5.6c4.4,7.2,0.2,17.3-8.6,18c-2,0.2-4.1,0.1-6.1,0.1c-2.5,0-5,0-7.5,0.1c-0.6,0-1.9,1.1-1.9,1.7
	c0,1.1-0.1,2.3-0.1,3.4c0,16.8,0,33.6,0,50.4c0,3.4,0.3,6.8,1.1,10.1c1.8,6.7,5.9,11.1,12.6,13c2.2,0.6,4.4,1.2,6.7,1.2
	c1.1,0,2.3,0,3.4,0.1c5.7,0.5,10.1,4.9,10.6,10.6c0.4,4.1-0.9,7.6-4.1,10.3c-1.6,1.4-3.4,2.3-5.5,2.5c-0.7,0.1-1.4,0.2-2,0.2
	c-6.6,0-13.2-0.5-19.5-2.5c-13.5-4.2-21.8-13.4-25.2-27c-0.9-3.7-1.6-7.5-1.7-11.4c0-2.7-0.1-5.4-0.1-8.2c0-15.4,0-30.9,0-46.3
	c0-1.8,0-3.6,0-5.5c0-1.8-0.8-2.6-2.4-2.7c-1.6-0.1-3.2,0-4.8-0.2c-4.4-0.6-7.4-3.2-9.1-7.3c-1.8-4.1-1.1-8,1.5-11.6
	c2.1-2.8,5-4.6,8.7-4.7c1.4,0,2.7-0.1,4.1-0.1c0.9,0,1.8-0.9,1.8-1.7c0.1-1.6,0.1-3.2,0.1-4.8c0-10.7,0-21.4,0-32
	c0-1.8,0.1-3.6,0.1-5.4c0.1-5.4,5.5-10.6,11.3-10.7c4.8,0,8.3,2,10.8,5.9c0.9,1.4,1.4,2.8,1.4,4.5c0,1.6,0.1,3.2,0.1,4.8
	C557.4,83.4,557.4,88.8,557.4,94.3z"/>
<path class="st1" d="M534.3,26.9c0-5,0-10,0-14.9c0-1.6,0.1-3.2,0.8-4.7c1.5-3.7,4.2-5.7,8.3-6c5.8-0.4,9.8,3.8,10.2,8.7
	c0.1,1.4,0.2,2.7,0.2,4.1c0,8.8,0,17.7,0,26.5c0,1.6-0.1,3.2-0.3,4.7c-0.6,4.2-3.9,7.5-8,8c-4.5,0.6-8.6-1.9-10.2-6.1
	c-0.6-1.5-0.8-3-0.8-4.6C534.3,37.3,534.3,32.1,534.3,26.9z"/>
<path class="st2" d="M612,44.1c0,3.4-1.5,6-4.3,7.9c-0.6,0.4-1.1,0.7-1.7,1.1c-8.6,5-17.2,10-25.8,15c-2,1.2-4,2-6.4,1.9
	c-4.1-0.1-7.3-2.3-8.8-6.2c-1.4-3.6-0.3-7.9,2.7-10.4c0.9-0.7,1.8-1.3,2.8-1.9c8.8-5.1,17.6-10.2,26.4-15.3c0.6-0.3,1.2-0.6,1.8-0.9
	C604.3,32.4,612.3,36.8,612,44.1z"/>
<path class="st2" d="M485.2,35.4c2.3,0,4.1,0.3,5.7,1.2c2.3,1.4,4.7,2.7,7.1,4c6.5,3.7,12.9,7.5,19.4,11.2c1.4,0.8,2.8,1.6,3.9,2.7
	c3.5,3.2,4,8.4,1.2,12.4c-2.6,3.7-7.3,5.1-11.4,3.3c-1-0.5-2-1-3-1.6c-8.4-4.9-16.9-9.7-25.3-14.6c-1.2-0.7-2.3-1.4-3.3-2.3
	c-4.5-4-4.1-12.8,2.9-15.7C483.4,35.6,484.5,35.5,485.2,35.4z"/>
<path class="st3" d="M565.1,95.2c0-6.4,4.4-9.3,8.9-9.9c0.6-0.1,1.4,0.1,2,0.2c1.8,0.4,3.4,1.1,5,2c8,4.7,16.1,9.3,24.1,13.9
	c1.2,0.7,2.3,1.4,3.4,2.2c1.6,1,2.5,2.5,3.4,4.2c2.9,6-1.7,12.8-8.1,13.3c-0.9,0.1-1.8-0.1-2.7-0.4c-1.7-0.6-3.4-1.3-4.9-2.2
	c-7.9-4.5-15.7-9-23.5-13.6c-1.4-0.8-2.7-1.6-4-2.6C566.1,100.5,564.9,97.9,565.1,95.2z"/>
<path class="st3" d="M487,121.7c-3.6,0.1-6.4-1.1-8.4-3.9c-2.9-4.1-2.1-9.6,1.8-12.8c0.7-0.6,1.5-1.1,2.3-1.5
	c9.2-5.3,18.4-10.7,27.6-16c3-1.7,6-1.8,9.1-0.3c6.1,3,7.1,11.7,1.8,15.9c-1.2,1-2.6,1.8-4,2.6c-8.2,4.8-16.5,9.5-24.7,14.3
	C490.8,121,488.9,121.8,487,121.7z"/>
<path class="st4" d="M566.7,20.9c0.1-0.7,0.2-2.1,0.8-3.3c2.4-4.6,4.8-9.3,7.6-13.6c3.3-5.1,10.6-5.4,14.7-0.8
	c2.4,2.7,3.4,5.9,2,9.4c-0.5,1.3-1.1,2.5-1.8,3.7c-1.9,3.4-3.7,6.8-5.7,10.1c-1.3,2.2-3.4,3.5-5.9,4.3
	C573.8,32,566.8,28.6,566.7,20.9z"/>
<path class="st4" d="M504.5,1.3c3.1-0.1,5.9,1.2,7.7,4.1c2.7,4.2,5.3,8.4,7.6,12.8c1.9,3.7,1.2,9.5-3.8,12.4
	c-4,2.3-9.3,1.3-12.2-2.4c-0.1-0.2-0.3-0.3-0.4-0.5c-2.5-4.3-5.2-8.5-7.5-12.9c-2.3-4.4-0.8-9.1,3.2-12
	C500.5,1.7,502.3,1.3,504.5,1.3z"/>
<path class="st4" d="M616.5,86.5c-2.3,0-4.5,0.1-6.8,0c-5.4-0.2-9.6-4.9-8.9-10.6c0.4-3.7,2.4-6.3,5.8-7.7c1.2-0.5,2.6-0.8,3.9-0.9
	c4.1-0.1,8.1-0.2,12.2,0c3.6,0.1,6.5,1.6,8.4,4.9c3.2,5.4,0.3,13.1-6.5,14.1c-2.7,0.4-5.4,0.2-8.1,0.3
	C616.5,86.6,616.5,86.6,616.5,86.5z"/>
<path class="st4" d="M472.8,88.7c-2.5,0-5,0.2-7.5,0c-3.6-0.4-6.2-2.3-7.9-5.6c-3-6,1.9-13.3,7.9-13.4c5-0.1,10,0,14.9,0
	c4.3,0,8.5,4.2,8.8,8.8c0.3,4.7-3,9.4-8.1,10.1C478.3,88.9,475.5,88.6,472.8,88.7C472.8,88.6,472.8,88.6,472.8,88.7z"/>
</svg>
